<?xml version="1.0" encoding="UTF-8"?>
<svg xmlns="http://www.w3.org/2000/svg" xmlns:xlink="http://www.w3.org/1999/xlink" width="566.929pt" height="566.929pt" viewBox="0 0 566.929 566.929" version="1.1">
<defs>
<clipPath id="clip1">
  <path d="M 109 101 L 464 101 L 464 456 L 109 456 Z M 109 101 "/>
</clipPath>
<clipPath id="clip2">
  <path d="M 109.605469 278.023438 C 109.605469 335.273438 144.105469 383.015625 144.105469 383.015625 L 122.503906 447.445313 L 189.054688 425.734375 C 189.054688 425.734375 232.414063 455.015625 286.59375 455.015625 C 384.335938 455.015625 463.574219 375.773438 463.574219 278.023438 C 463.574219 180.285156 384.335938 101.042969 286.59375 101.042969 C 188.84375 101.042969 109.605469 180.285156 109.605469 278.023438 M 333.503906 376.464844 C 320.90625 372.945313 279.242188 362.046875 252.085938 336.714844 C 224.914063 311.375 202.914063 284.703125 193.914063 265.046875 C 184.914063 245.375 185.414063 233.703125 185.914063 228.203125 C 186.414063 222.703125 189.304688 197.222656 206.363281 186.304688 C 206.363281 186.304688 212.054688 182.695313 215.023438 182.695313 L 231.625 182.695313 C 231.625 182.695313 236.074219 183.464844 238.113281 188.105469 C 240.152344 192.742188 254.15625 225.625 255.195313 228.15625 C 256.234375 230.695313 258.953125 236.972656 254.59375 242.59375 C 250.234375 248.214844 241.125 258.714844 241.125 258.714844 C 241.125 258.714844 237.515625 261.953125 240.644531 267.136719 C 243.765625 272.304688 254.765625 289.363281 269.144531 302.253906 C 283.535156 315.144531 301.144531 324.625 309.925781 327.515625 C 318.703125 330.40625 320.636719 326.554688 323.996094 322.222656 C 327.363281 317.894531 337.835938 304.664063 337.835938 304.664063 C 337.835938 304.664063 341.445313 299.363281 348.535156 302.613281 C 355.636719 305.863281 390.15625 322.585938 390.15625 322.585938 C 390.15625 322.585938 394.367188 323.304688 394.605469 327.996094 C 394.84375 332.683594 397.734375 346.722656 385.222656 360.222656 C 375.023438 371.242188 355.445313 377.433594 341.734375 377.429688 C 338.632813 377.429688 335.828125 377.113281 333.503906 376.464844 "/>
</clipPath>
<linearGradient id="linear0" gradientUnits="userSpaceOnUse" x1="0.0430894" y1="0" x2="1.037477" y2="0" gradientTransform="matrix(112.837624,-421.115753,-421.115753,-112.837624,225.624832,505.550849)">

</linearGradient>
</defs>
<g id="surface1">
<path style=" stroke:none;fill-rule:nonzero;fill:rgb(13.729858%,12.159729%,12.548828%);fill-opacity:0;" d="M 0 566.929688 L 566.929688 566.929688 L 566.929688 0 L 0 0 Z M 0 566.929688 "/>
<path style=" stroke:none;fill-rule:nonzero;fill:rgb(100%,100%,100%);fill-opacity:1;" d="M 286.59375 455.011719 C 232.417969 455.011719 189.054688 425.734375 189.054688 425.734375 L 122.507813 447.449219 L 144.101563 383.019531 C 144.101563 383.019531 109.609375 335.269531 109.609375 278.027344 C 109.609375 180.28125 188.847656 101.042969 286.59375 101.042969 C 384.339844 101.042969 463.578125 180.28125 463.578125 278.027344 C 463.578125 375.773438 384.339844 455.011719 286.59375 455.011719 M 286.59375 67.332031 C 170.230469 67.332031 75.898438 161.664063 75.898438 278.027344 C 75.898438 335.78125 106.472656 387.402344 106.472656 387.402344 L 69.640625 499.597656 L 185.085938 462.703125 C 185.085938 462.703125 227.945313 488.722656 286.59375 488.722656 C 402.957031 488.722656 497.289063 394.390625 497.289063 278.027344 C 497.289063 161.664063 402.957031 67.332031 286.59375 67.332031 "/>
<g clip-path="url(#clip1)" clip-rule="nonzero">
<g clip-path="url(#clip2)" clip-rule="nonzero">
<path style=" stroke:none;fill-rule:nonzero;fill:url(#linear0);" d="M 439.863281 543.507813 L 21.113281 431.304688 L 133.316406 12.550781 L 552.070313 124.753906 Z M 439.863281 543.507813 "/>
</g>
</g>
<path style=" stroke:none;fill-rule:nonzero;fill:rgb(100%,100%,100%);fill-opacity:1;" d="M 394.605469 327.996094 C 394.84375 332.683594 397.734375 346.722656 385.222656 360.222656 C 372.714844 373.734375 346.105469 379.984375 333.503906 376.464844 C 320.90625 372.945313 279.246094 362.046875 252.085938 336.714844 C 224.914063 311.375 202.914063 284.703125 193.914063 265.042969 C 184.914063 245.375 185.414063 233.703125 185.914063 228.203125 C 186.414063 222.703125 189.304688 197.222656 206.363281 186.304688 C 206.363281 186.304688 212.054688 182.695313 215.023438 182.695313 L 231.625 182.695313 C 231.625 182.695313 236.074219 183.464844 238.113281 188.105469 C 240.15625 192.742188 254.15625 225.625 255.195313 228.152344 C 256.234375 230.695313 258.953125 236.972656 254.59375 242.59375 C 250.234375 248.214844 241.125 258.714844 241.125 258.714844 C 241.125 258.714844 237.515625 261.953125 240.644531 267.132813 C 243.765625 272.304688 254.765625 289.363281 269.144531 302.253906 C 283.535156 315.144531 301.144531 324.625 309.925781 327.515625 C 318.707031 330.40625 320.632813 326.554688 323.996094 322.222656 C 327.367188 317.894531 337.835938 304.664063 337.835938 304.664063 C 337.835938 304.664063 341.445313 299.363281 348.535156 302.613281 C 355.632813 305.863281 390.15625 322.585938 390.15625 322.585938 C 390.15625 322.585938 394.367188 323.304688 394.605469 327.996094 "/>
</g>
</svg>
